<svg width="279" height="92" viewBox="0 0 279 92" fill="none" xmlns="http://www.w3.org/2000/svg">
<line x1="31.8023" y1="38.4395" x2="58.5033" y2="50.8999" stroke="#1E1E1E" stroke-width="2.93617" stroke-linecap="round"/>
<path d="M51.6017 63.8167L47.4887 71.0738L39.3159 69.4047L38.3777 61.1161L45.9707 57.6625L51.6017 63.8167Z" fill="#58855C" stroke="#1E1E1E" stroke-width="2.93617" stroke-linejoin="round"/>
<circle cx="64.8404" cy="53.5851" r="5.62766" fill="#58855C" stroke="#1E1E1E" stroke-width="2.93617"/>
<rect x="53.3405" y="30.1551" width="9.44521" height="9.44521" rx="1.46809" transform="rotate(-10.8138 53.3405 30.1551)" fill="#58855C" stroke="#1E1E1E" stroke-width="2.93617"/>
<path d="M15.9042 72.4255C15.8 71.9947 13.0628 66.0026 11.9893 61.6596C11.0846 57.9993 10.5822 53.2425 10.5213 52.117C10.3816 49.5389 10.8399 46.2672 11.485 44.4729C12.8796 40.5938 15.149 37.6452 15.149 37.6452C15.149 37.6452 16.8237 35.6182 17.8476 34.6076C18.646 33.8195 19.5885 33.2604 20.7978 32.5425C22.3416 31.6262 24.9574 30.5851 24.9574 30.5851C24.9574 30.5851 30.2825 28.5753 31.5638 28.1383C33.1769 27.5882 34.3199 27.4383 36.2672 26.6159C37.846 25.9491 40.0984 24.9445 42.3297 23.4894C45.0557 21.7116 46.7094 20.6876 48.6914 18.1064C49.8392 16.6116 50.4393 15.697 51.1382 13.9468C51.6883 12.5692 51.9806 11.7537 52.117 10.2766C52.258 8.74904 51.7942 7.21017 51.7942 6.36169" stroke="#1E1E1E" stroke-width="3.91489" stroke-linecap="round"/>
<path d="M48.4467 4.89362C46.84 4.89362 43.3084 5.38298 41.5956 5.87234C40.3967 6.21489 36.6327 7.53334 35.4786 8.31914C34.0308 9.30485 32.5802 10.7316 31.5637 13.2128C30.9696 14.6629 30.46 16.5985 30.0956 18.8404C29.5895 21.9543 29.8509 26.9149 29.8509 26.9149C29.8509 26.9149 30.797 33.8214 31.234 35.6872C32.0543 39.19 32.5506 42.0141 32.6736 44.3532C32.7661 46.112 33.0455 49.8635 32.6736 52.8511C32.3018 55.8386 32.2906 58.6672 31.0883 62.1489C30.1112 64.9787 27.6488 69 27.6488 69C27.6488 69 25.6976 71.3696 23.9636 72.0929C23.5298 72.2739 22.8212 72.4721 22.8212 72.4721L19.085 73.1596" stroke="#1E1E1E" stroke-width="3.91489" stroke-linecap="round"/>
<line x1="20.9241" y1="67.0579" x2="25.9514" y2="68.629" stroke="#1E1E1E" stroke-width="2.93617" stroke-linecap="round"/>
<line x1="10.6655" y1="50.9439" x2="18.1566" y2="53.4409" stroke="#1E1E1E" stroke-width="2.93617" stroke-linecap="round"/>
<line x1="25.3976" y1="55.9481" x2="37.3523" y2="60.73" stroke="#1E1E1E" stroke-width="2.93617" stroke-linecap="round"/>
<line x1="12.1335" y1="44.5821" x2="31.3693" y2="50.994" stroke="#1E1E1E" stroke-width="2.93617" stroke-linecap="round"/>
<line x1="18.9846" y1="33.8162" x2="26.4757" y2="36.3132" stroke="#1E1E1E" stroke-width="2.93617" stroke-linecap="round"/>
<line x1="41.6861" y1="6.50975" x2="46.1479" y2="9.69675" stroke="#1E1E1E" stroke-width="2.93617" stroke-linecap="round"/>
<line x1="41.1969" y1="15.3182" x2="45.6587" y2="18.5052" stroke="#1E1E1E" stroke-width="2.93617" stroke-linecap="round"/>
<line x1="32.3762" y1="16.2311" x2="53.4225" y2="30.262" stroke="#1E1E1E" stroke-width="2.93617" stroke-linecap="round"/>
<path d="M42.4854 3.66992C63.8541 3.66992 81.3017 21.3617 81.3018 43.3398C81.3018 65.318 63.8541 83.0098 42.4854 83.0098C21.1168 83.0095 3.66992 65.3178 3.66992 43.3398C3.66993 21.3618 21.1168 3.67016 42.4854 3.66992Z" stroke="#1E1E1E" stroke-width="7.34043"/>
<path d="M83.5584 89.1576C84.9773 90.6051 87.278 90.6051 88.6969 89.1576C90.1159 87.7101 90.1159 85.3632 88.6969 83.9157L86.1276 86.5367L83.5584 89.1576ZM71.9657 72.09L69.3964 74.711L83.5584 89.1576L86.1276 86.5367L88.6969 83.9157L74.535 69.4691L71.9657 72.09Z" fill="#1E1E1E"/>
<path d="M42.4854 3.66992C63.8541 3.66992 81.3017 21.3617 81.3018 43.3398C81.3018 65.318 63.8541 83.0098 42.4854 83.0098C21.1168 83.0095 3.66992 65.3178 3.66992 43.3398C3.66993 21.3618 21.1168 3.67016 42.4854 3.66992Z" stroke="#1E1E1E" stroke-width="7.34043"/>
<path d="M83.5584 89.1576C84.9773 90.6051 87.278 90.6051 88.6969 89.1576C90.1159 87.7101 90.1159 85.3632 88.6969 83.9157L86.1276 86.5367L83.5584 89.1576ZM71.9657 72.09L69.3964 74.711L83.5584 89.1576L86.1276 86.5367L88.6969 83.9157L74.535 69.4691L71.9657 72.09Z" fill="#1E1E1E"/>
<path d="M133.048 66.576C129.507 66.576 126.435 65.872 123.832 64.464C121.272 63.056 119.288 61.0507 117.88 58.448C116.472 55.8453 115.768 52.7733 115.768 49.232C115.768 43.8987 117.304 39.8027 120.376 36.944C123.491 34.0427 127.672 32.592 132.92 32.592C138.168 32.592 142.35 34.0427 145.464 36.944C148.579 39.8453 150.136 43.984 150.136 49.36C150.136 52.8587 149.454 55.9093 148.088 58.512C146.723 61.072 144.76 63.056 142.2 64.464C139.64 65.872 136.59 66.576 133.048 66.576ZM133.048 58C135.182 58 136.803 57.2107 137.912 55.632C139.064 54.0533 139.64 51.9627 139.64 49.36C139.64 46.5867 139.022 44.5173 137.784 43.152C136.59 41.744 134.968 41.04 132.92 41.04C130.872 41.04 129.23 41.744 127.992 43.152C126.798 44.5173 126.2 46.5653 126.2 49.296C126.2 51.9413 126.819 54.0533 128.056 55.632C129.294 57.2107 130.958 58 133.048 58ZM200.516 70.416L195.332 65.232V48.08C195.332 46.416 194.863 45.0933 193.924 44.112C192.986 43.1307 191.62 42.64 189.828 42.64C189.06 42.64 188.335 42.7253 187.652 42.896C186.97 43.0667 186.372 43.3013 185.86 43.6V66H175.62V47.824C175.62 46.0747 175.151 44.7307 174.212 43.792C173.274 42.8533 171.908 42.384 170.116 42.384C169.348 42.384 168.623 42.4693 167.94 42.64C167.258 42.8107 166.66 43.0453 166.148 43.344V66H155.908V38.416C157.53 36.7947 159.684 35.4933 162.372 34.512C165.06 33.488 167.727 32.976 170.372 32.976C172.762 32.976 174.874 33.3813 176.708 34.192C178.543 34.96 179.994 35.9627 181.06 37.2C182.17 36.048 183.663 35.0667 185.54 34.256C187.418 33.4027 189.594 32.976 192.068 32.976C194.714 32.976 197.039 33.5093 199.044 34.576C201.092 35.6427 202.692 37.2213 203.844 39.312C204.996 41.36 205.572 43.8773 205.572 46.864V60.432L208.452 63.696L200.516 70.416ZM211.628 66L226.796 45.904L212.204 25.296H225.388L233.9 37.776L242.22 25.296H255.02L240.748 45.712L255.532 66H241.836L233.516 53.648L225.004 66H211.628Z" fill="#1E1E1E"/>
</svg>
