<svg width="188" height="188" viewBox="0 0 188 188" fill="none" xmlns="http://www.w3.org/2000/svg">
<line x1="64.9872" y1="78.5501" x2="119.55" y2="104.013" stroke="#1E1E1E" stroke-width="6" stroke-linecap="round"/>
<path d="M105.447 130.408L97.0422 145.238L80.3412 141.827L78.424 124.889L93.9402 117.832L105.447 130.408Z" fill="#58855C" stroke="#1E1E1E" stroke-width="6" stroke-linejoin="round"/>
<circle cx="132.5" cy="109.5" r="11.5" fill="#58855C" stroke="#1E1E1E" stroke-width="6"/>
<rect x="109" y="61.6212" width="19.3011" height="19.3011" rx="3" transform="rotate(-10.8138 109 61.6212)" fill="#58855C" stroke="#1E1E1E" stroke-width="6"/>
<path d="M32.4999 148C32.2871 147.12 26.6936 134.875 24.4999 126C22.6512 118.52 21.6246 108.8 21.5 106.5C21.2146 101.232 22.1512 94.546 23.4694 90.8794C26.3192 82.9526 30.9568 76.9272 30.9568 76.9272C30.9568 76.9272 34.379 72.7851 36.4713 70.7199C38.1027 69.1095 40.0287 67.9669 42.4999 66.5C45.6547 64.6274 50.9999 62.5 50.9999 62.5C50.9999 62.5 61.8816 58.3929 64.4999 57.5C67.7963 56.3758 70.1319 56.0696 74.1113 54.389C77.3376 53.0264 81.9403 50.9735 86.4999 48C92.0705 44.3673 95.4496 42.2747 99.4999 37C101.845 33.9455 103.072 32.0766 104.5 28.5C105.624 25.6849 106.221 24.0184 106.5 21C106.788 17.8785 105.84 14.7338 105.84 13" stroke="#1E1E1E" stroke-width="8" stroke-linecap="round"/>
<path d="M99 10C95.7169 10 88.5 11 85 12C82.55 12.7 74.8584 15.3942 72.5 17C69.5416 19.0143 66.5772 21.9299 64.5 27C63.286 29.9633 62.2446 33.9188 61.5 38.5C60.4658 44.8631 61 55 61 55C61 55 62.9333 69.1132 63.8262 72.926C65.5025 80.0839 66.5168 85.8549 66.7682 90.6347C66.9572 94.2289 67.528 101.895 66.7682 108C66.0083 114.105 65.9855 119.885 63.5286 127C61.5318 132.783 56.5 141 56.5 141C56.5 141 52.5129 145.842 48.9694 147.32C48.0829 147.69 46.635 148.095 46.635 148.095L39 149.5" stroke="#1E1E1E" stroke-width="8" stroke-linecap="round"/>
<line x1="42.7583" y1="137.031" x2="53.0314" y2="140.242" stroke="#1E1E1E" stroke-width="6" stroke-linecap="round"/>
<line x1="21.7947" y1="104.103" x2="37.1026" y2="109.205" stroke="#1E1E1E" stroke-width="6" stroke-linecap="round"/>
<line x1="51.8996" y1="114.329" x2="76.3287" y2="124.1" stroke="#1E1E1E" stroke-width="6" stroke-linecap="round"/>
<line x1="24.7947" y1="91.1026" x2="64.1026" y2="104.205" stroke="#1E1E1E" stroke-width="6" stroke-linecap="round"/>
<line x1="38.7947" y1="69.1026" x2="54.1026" y2="74.2053" stroke="#1E1E1E" stroke-width="6" stroke-linecap="round"/>
<line x1="85.1849" y1="13.3025" x2="94.3025" y2="19.8151" stroke="#1E1E1E" stroke-width="6" stroke-linecap="round"/>
<line x1="84.1849" y1="31.3025" x2="93.3025" y2="37.8151" stroke="#1E1E1E" stroke-width="6" stroke-linecap="round"/>
<line x1="66.1603" y1="33.1679" x2="109.168" y2="61.8397" stroke="#1E1E1E" stroke-width="6" stroke-linecap="round"/>
<path d="M86.8184 7.5C130.485 7.5 166.138 43.6526 166.138 88.5645C166.137 133.476 130.485 169.628 86.8184 169.628C43.1522 169.628 7.50021 133.476 7.5 88.5645C7.5 43.6527 43.152 7.50022 86.8184 7.5Z" stroke="#1E1E1E" stroke-width="15"/>
<path d="M170.75 182.192C173.649 185.149 178.351 185.149 181.25 182.192C184.15 179.234 184.15 174.438 181.25 171.48L176 176.836L170.75 182.192ZM147.06 147.314L141.81 152.67L170.75 182.192L176 176.836L181.25 171.48L152.311 141.959L147.06 147.314Z" fill="#1E1E1E"/>
</svg>
